<?xml version="1.0" encoding="UTF-8" standalone="no"?>
<!DOCTYPE svg PUBLIC "-//W3C//DTD SVG 1.1//EN" "http://www.w3.org/Graphics/SVG/1.1/DTD/svg11.dtd">
<svg version="1.1" xmlns="http://www.w3.org/2000/svg" xmlns:xlink="http://www.w3.org/1999/xlink" preserveAspectRatio="xMidYMid meet" viewBox="0 0 640 640" width="640" height="640"><defs><path d="M37.83 19.76L38.09 19.81L38.34 19.9L38.57 20.02L38.78 20.16L38.97 20.33L39.14 20.53L39.28 20.74L39.39 20.97L39.48 21.22L39.53 21.48L39.54 21.75L39.52 22.02L39.47 22.28L39.38 22.53L39.26 22.76L39.12 22.97L38.95 23.16L38.75 23.33L38.54 23.47L38.31 23.59L38.06 23.67L37.8 23.72L37.53 23.74L13.53 23.54L13.26 23.52L13 23.46L12.75 23.37L12.52 23.25L12.31 23.11L12.12 22.94L11.95 22.74L11.81 22.53L11.7 22.3L11.61 22.05L11.56 21.79L11.55 21.52L11.57 21.25L11.62 20.99L11.71 20.74L11.83 20.51L11.97 20.3L12.14 20.11L12.34 19.94L12.55 19.8L12.78 19.69L13.03 19.6L13.29 19.55L13.56 19.54L37.56 19.74L37.83 19.76Z" id="b17HqSlGnN"></path><path d="M37.83 27.48L38.09 27.54L38.34 27.63L38.57 27.75L38.78 27.89L38.97 28.06L39.14 28.26L39.28 28.47L39.39 28.7L39.48 28.95L39.53 29.21L39.54 29.48L39.52 29.75L39.47 30.01L39.38 30.26L39.26 30.49L39.12 30.7L38.95 30.89L38.75 31.06L38.54 31.2L38.31 31.31L38.06 31.4L37.8 31.45L37.53 31.46L13.53 31.26L13.26 31.24L13 31.19L12.75 31.1L12.52 30.98L12.31 30.84L12.12 30.67L11.95 30.47L11.81 30.26L11.7 30.03L11.61 29.78L11.56 29.52L11.55 29.25L11.57 28.98L11.62 28.72L11.71 28.47L11.83 28.24L11.97 28.03L12.14 27.84L12.34 27.67L12.55 27.53L12.78 27.41L13.03 27.33L13.29 27.28L13.56 27.26L37.56 27.46L37.83 27.48Z" id="b50qSLQOP"></path><path d="M37.83 34.91L38.09 34.96L38.34 35.05L38.57 35.17L38.78 35.32L38.97 35.49L39.14 35.68L39.28 35.89L39.39 36.13L39.48 36.37L39.53 36.63L39.54 36.9L39.52 37.18L39.47 37.44L39.38 37.68L39.26 37.91L39.12 38.12L38.95 38.31L38.75 38.48L38.54 38.62L38.31 38.74L38.06 38.82L37.8 38.87L37.53 38.89L13.53 38.69L13.26 38.67L13 38.61L12.75 38.52L12.52 38.41L12.31 38.26L12.12 38.09L11.95 37.9L11.81 37.68L11.7 37.45L11.61 37.2L11.56 36.94L11.55 36.67L11.57 36.4L11.62 36.14L11.71 35.89L11.83 35.66L11.97 35.45L12.14 35.26L12.34 35.09L12.55 34.95L12.78 34.84L13.03 34.75L13.29 34.7L13.56 34.69L37.56 34.89L37.83 34.91Z" id="f2MDZiyUwH"></path></defs><g><g><g><use xlink:href="#b17HqSlGnN" opacity="1" fill="#547980" fill-opacity="1"></use><g><use xlink:href="#b17HqSlGnN" opacity="1" fill-opacity="0" stroke="#000000" stroke-width="1" stroke-opacity="0"></use></g></g><g><use xlink:href="#b50qSLQOP" opacity="1" fill="#547980" fill-opacity="1"></use><g><use xlink:href="#b50qSLQOP" opacity="1" fill-opacity="0" stroke="#000000" stroke-width="1" stroke-opacity="0"></use></g></g><g><use xlink:href="#f2MDZiyUwH" opacity="1" fill="#547980" fill-opacity="1"></use><g><use xlink:href="#f2MDZiyUwH" opacity="1" fill-opacity="0" stroke="#000000" stroke-width="1" stroke-opacity="0"></use></g></g></g></g></svg>